999
"DXF R12 Output" (www.mydxf.blogspot.com)
 0 
SECTION
 2 
HEADER
 9 
$ACADVER
 1 
AC1009
 9 
$EXTMIN
 10 
 0 
 20 
 0 
 9 
$EXTMAX
 10 
 8.5 
 20 
 11 
 0 
ENDSEC
 0 
SECTION
 2 
ENTITIES
0
LINE
8
Слой 1
10
30.895300
20
212.384247
11
221.531130
21
212.384247
0
LINE
8
Слой 1
10
221.531130
20
212.384247
11
221.921099
21
212.305903
0
LINE
8
Слой 1
10
221.921099
20
212.305903
11
222.238880
21
212.091997
0
LINE
8
Слой 1
10
222.238880
20
212.091997
11
222.452786
21
211.774216
0
LINE
8
Слой 1
10
222.452786
20
211.774216
11
222.531130
21
211.384247
0
LINE
8
Слой 1
10
222.531130
20
211.384247
11
222.531130
21
116.748420
0
LINE
8
Слой 1
10
222.531130
20
116.748420
11
222.452786
21
116.358451
0
LINE
8
Слой 1
10
222.452786
20
116.358451
11
222.238880
21
116.040670
0
LINE
8
Слой 1
10
222.238880
20
116.040670
11
221.921099
21
115.826764
0
LINE
8
Слой 1
10
221.921099
20
115.826764
11
221.531130
21
115.748420
0
LINE
8
Слой 1
10
221.531130
20
115.748420
11
30.895300
21
115.748420
0
LINE
8
Слой 1
10
30.895300
20
115.748420
11
30.505331
21
115.826764
0
LINE
8
Слой 1
10
30.505331
20
115.826764
11
30.187550
21
116.040670
0
LINE
8
Слой 1
10
30.187550
20
116.040670
11
29.973644
21
116.358451
0
LINE
8
Слой 1
10
29.973644
20
116.358451
11
29.895300
21
116.748420
0
LINE
8
Слой 1
10
29.895300
20
116.748420
11
29.895300
21
211.384247
0
LINE
8
Слой 1
10
29.895300
20
211.384247
11
29.973644
21
211.774216
0
LINE
8
Слой 1
10
29.973644
20
211.774216
11
30.187550
21
212.091997
0
LINE
8
Слой 1
10
30.187550
20
212.091997
11
30.505331
21
212.305903
0
LINE
8
Слой 1
10
30.505331
20
212.305903
11
30.895300
21
212.384247
0
LINE
8
Слой 1
10
30.895300
20
212.384247
11
30.895300
21
212.384247
0
LINE
8
Слой 1
10
71.810699
20
168.968840
11
84.615725
21
168.968840
0
LINE
8
Слой 1
10
84.615725
20
168.968840
11
85.005694
21
168.890496
0
LINE
8
Слой 1
10
85.005694
20
168.890496
11
85.323475
21
168.676590
0
LINE
8
Слой 1
10
85.323475
20
168.676590
11
85.537381
21
168.358809
0
LINE
8
Слой 1
10
85.537381
20
168.358809
11
85.615725
21
167.968840
0
LINE
8
Слой 1
10
85.615725
20
167.968840
11
85.615725
21
160.163820
0
LINE
8
Слой 1
10
85.615725
20
160.163820
11
85.537381
21
159.773851
0
LINE
8
Слой 1
10
85.537381
20
159.773851
11
85.323475
21
159.456070
0
LINE
8
Слой 1
10
85.323475
20
159.456070
11
85.005694
21
159.242164
0
LINE
8
Слой 1
10
85.005694
20
159.242164
11
84.615725
21
159.163820
0
LINE
8
Слой 1
10
84.615725
20
159.163820
11
71.810699
21
159.163820
0
LINE
8
Слой 1
10
71.810699
20
159.163820
11
71.420730
21
159.242164
0
LINE
8
Слой 1
10
71.420730
20
159.242164
11
71.102949
21
159.456070
0
LINE
8
Слой 1
10
71.102949
20
159.456070
11
70.889043
21
159.773851
0
LINE
8
Слой 1
10
70.889043
20
159.773851
11
70.810699
21
160.163820
0
LINE
8
Слой 1
10
70.810699
20
160.163820
11
70.810699
21
167.968840
0
LINE
8
Слой 1
10
70.810699
20
167.968840
11
70.889043
21
168.358809
0
LINE
8
Слой 1
10
70.889043
20
168.358809
11
71.102949
21
168.676590
0
LINE
8
Слой 1
10
71.102949
20
168.676590
11
71.420730
21
168.890496
0
LINE
8
Слой 1
10
71.420730
20
168.890496
11
71.810699
21
168.968840
0
LINE
8
Слой 1
10
71.810699
20
168.968840
11
71.810699
21
168.968840
0
LINE
8
Слой 1
10
167.810710
20
168.968840
11
180.615740
21
168.968840
0
LINE
8
Слой 1
10
180.615740
20
168.968840
11
181.005709
21
168.890496
0
LINE
8
Слой 1
10
181.005709
20
168.890496
11
181.323490
21
168.676590
0
LINE
8
Слой 1
10
181.323490
20
168.676590
11
181.537396
21
168.358809
0
LINE
8
Слой 1
10
181.537396
20
168.358809
11
181.615740
21
167.968840
0
LINE
8
Слой 1
10
181.615740
20
167.968840
11
181.615740
21
160.163820
0
LINE
8
Слой 1
10
181.615740
20
160.163820
11
181.537396
21
159.773851
0
LINE
8
Слой 1
10
181.537396
20
159.773851
11
181.323490
21
159.456070
0
LINE
8
Слой 1
10
181.323490
20
159.456070
11
181.005709
21
159.242164
0
LINE
8
Слой 1
10
181.005709
20
159.242164
11
180.615740
21
159.163820
0
LINE
8
Слой 1
10
180.615740
20
159.163820
11
167.810710
21
159.163820
0
LINE
8
Слой 1
10
167.810710
20
159.163820
11
167.420741
21
159.242164
0
LINE
8
Слой 1
10
167.420741
20
159.242164
11
167.102960
21
159.456070
0
LINE
8
Слой 1
10
167.102960
20
159.456070
11
166.889054
21
159.773851
0
LINE
8
Слой 1
10
166.889054
20
159.773851
11
166.810710
21
160.163820
0
LINE
8
Слой 1
10
166.810710
20
160.163820
11
166.810710
21
167.968840
0
LINE
8
Слой 1
10
166.810710
20
167.968840
11
166.889054
21
168.358809
0
LINE
8
Слой 1
10
166.889054
20
168.358809
11
167.102960
21
168.676590
0
LINE
8
Слой 1
10
167.102960
20
168.676590
11
167.420741
21
168.890496
0
LINE
8
Слой 1
10
167.420741
20
168.890496
11
167.810710
21
168.968840
0
LINE
8
Слой 1
10
167.810710
20
168.968840
11
167.810710
21
168.968840
0
LINE
8
Слой 1
10
285.090420
20
188.564090
11
554.700590
21
188.564090
0
LINE
8
Слой 1
10
554.700590
20
188.564090
11
554.700590
21
68.953950
0
LINE
8
Слой 1
10
554.700590
20
68.953950
11
285.090420
21
68.953950
0
LINE
8
Слой 1
10
285.090420
20
68.953950
11
285.090420
21
188.564090
0
LINE
8
Слой 1
10
663.891260
20
186.750300
11
663.891260
21
46.889070
0
LINE
8
Слой 1
10
663.891260
20
46.889070
11
673.928370
21
46.889070
0
LINE
8
Слой 1
10
673.928370
20
46.889070
11
673.928370
21
44.226180
0
LINE
8
Слой 1
10
673.928370
20
44.226180
11
693.715800
21
44.226180
0
LINE
8
Слой 1
10
693.715800
20
44.226180
11
693.715800
21
46.889070
0
LINE
8
Слой 1
10
693.715800
20
46.889070
11
703.752910
21
46.889070
0
LINE
8
Слой 1
10
703.752910
20
46.889070
11
703.752910
21
186.750300
0
LINE
8
Слой 1
10
703.752910
20
186.750300
11
663.891260
21
186.750300
0
LINE
8
Слой 1
10
312.284330
20
138.670200
11
314.806690
21
138.670200
0
LINE
8
Слой 1
10
314.806690
20
138.670200
11
314.806690
21
118.847840
0
LINE
8
Слой 1
10
314.806690
20
118.847840
11
312.284330
21
118.847840
0
LINE
8
Слой 1
10
312.284330
20
118.847840
11
312.284330
21
138.670200
0
LINE
8
Слой 1
10
524.984310
20
138.670200
11
527.506670
21
138.670200
0
LINE
8
Слой 1
10
527.506670
20
138.670200
11
527.506670
21
118.847840
0
LINE
8
Слой 1
10
527.506670
20
118.847840
11
524.984310
21
118.847840
0
LINE
8
Слой 1
10
524.984310
20
118.847840
11
524.984310
21
138.670200
0
LINE
8
Слой 1
10
714.951060
20
186.750300
11
714.951060
21
46.889070
0
LINE
8
Слой 1
10
714.951060
20
46.889070
11
724.988170
21
46.889070
0
LINE
8
Слой 1
10
724.988170
20
46.889070
11
724.988170
21
44.226180
0
LINE
8
Слой 1
10
724.988170
20
44.226180
11
744.775600
21
44.226180
0
LINE
8
Слой 1
10
744.775600
20
44.226180
11
744.775600
21
46.889070
0
LINE
8
Слой 1
10
744.775600
20
46.889070
11
754.812710
21
46.889070
0
LINE
8
Слой 1
10
754.812710
20
46.889070
11
754.812710
21
186.750300
0
LINE
8
Слой 1
10
754.812710
20
186.750300
11
714.951060
21
186.750300
0
LINE
8
Слой 1
10
690.242490
20
177.784710
11
690.242490
21
152.943890
0
LINE
8
Слой 1
10
690.242490
20
152.943890
11
677.401670
21
152.943890
0
LINE
8
Слой 1
10
677.401670
20
152.943890
11
677.401670
21
177.784710
0
LINE
8
Слой 1
10
677.401670
20
177.784710
11
690.242490
21
177.784710
0
LINE
8
Слой 1
10
736.736020
20
164.864300
11
736.590313
21
164.142594
0
LINE
8
Слой 1
10
736.590313
20
164.142594
11
736.192959
21
163.553241
0
LINE
8
Слой 1
10
736.192959
20
163.553241
11
735.603606
21
163.155887
0
LINE
8
Слой 1
10
735.603606
20
163.155887
11
734.881900
21
163.010180
0
LINE
8
Слой 1
10
734.881900
20
163.010180
11
734.160191
21
163.155885
0
LINE
8
Слой 1
10
734.160191
20
163.155885
11
733.570834
21
163.553237
0
LINE
8
Слой 1
10
733.570834
20
163.553237
11
733.173478
21
164.142591
0
LINE
8
Слой 1
10
733.173478
20
164.142591
11
733.027770
21
164.864300
0
LINE
8
Слой 1
10
733.027770
20
164.864300
11
733.168906
21
165.573846
0
LINE
8
Слой 1
10
733.168906
20
165.573846
11
733.570831
21
166.175369
0
LINE
8
Слой 1
10
733.570831
20
166.175369
11
734.172354
21
166.577294
0
LINE
8
Слой 1
10
734.172354
20
166.577294
11
734.881900
21
166.718430
0
LINE
8
Слой 1
10
734.881900
20
166.718430
11
735.603609
21
166.572722
0
LINE
8
Слой 1
10
735.603609
20
166.572722
11
736.192963
21
166.175366
0
LINE
8
Слой 1
10
736.192963
20
166.175366
11
736.590315
21
165.586009
0
LINE
8
Слой 1
10
736.590315
20
165.586009
11
736.736020
21
164.864300
0
LINE
8
Слой 1
10
736.736020
20
164.864300
11
736.736020
21
164.864300
0
LINE
8
Слой 1
10
325.741120
20
48.581340
11
301.057530
21
32.436940
0
LINE
8
Слой 1
10
301.057530
20
32.436940
11
325.674410
21
32.236800
0
LINE
8
Слой 1
10
325.674410
20
32.236800
11
325.741120
21
48.581340
0
LINE
8
Слой 1
10
287.742640
20
225.884444
11
287.742640
21
218.327283
0
LINE
8
Слой 1
10
287.742640
20
218.327283
11
285.099910
21
218.327283
0
LINE
8
Слой 1
10
285.099910
20
218.327283
11
285.099910
21
203.844446
0
LINE
8
Слой 1
10
285.099910
20
203.844446
11
287.742640
21
203.844446
0
LINE
8
Слой 1
10
287.742640
20
203.844446
11
287.742640
21
196.287280
0
LINE
8
Слой 1
10
287.742640
20
196.287280
11
552.048480
21
196.287280
0
LINE
8
Слой 1
10
552.048480
20
196.287280
11
552.048480
21
203.832560
0
LINE
8
Слой 1
10
552.048480
20
203.832560
11
554.703100
21
203.832560
0
LINE
8
Слой 1
10
554.703100
20
203.832560
11
554.703100
21
218.339168
0
LINE
8
Слой 1
10
554.703100
20
218.339168
11
552.048480
21
218.339168
0
LINE
8
Слой 1
10
552.048480
20
218.339168
11
552.048480
21
225.884444
0
LINE
8
Слой 1
10
552.048480
20
225.884444
11
287.742640
21
225.884444
0
LINE
8
Слой 1
10
251.932080
20
188.571010
11
251.932080
21
182.630610
0
LINE
8
Слой 1
10
251.932080
20
182.630610
11
252.008580
21
182.630610
0
LINE
8
Слой 1
10
252.008580
20
182.630610
11
252.008580
21
73.415010
0
LINE
8
Слой 1
10
252.008580
20
73.415010
11
251.903650
21
73.415010
0
LINE
8
Слой 1
10
251.903650
20
73.415010
11
251.903650
21
68.947030
0
LINE
8
Слой 1
10
251.903650
20
68.947030
11
259.365920
21
68.947030
0
LINE
8
Слой 1
10
259.365920
20
68.947030
11
259.365920
21
71.837150
0
LINE
8
Слой 1
10
259.365920
20
71.837150
11
274.074910
21
71.837150
0
LINE
8
Слой 1
10
274.074910
20
71.837150
11
274.074910
21
68.947030
0
LINE
8
Слой 1
10
274.074910
20
68.947030
11
281.537690
21
68.947030
0
LINE
8
Слой 1
10
281.537690
20
68.947030
11
281.537690
21
73.415010
0
LINE
8
Слой 1
10
281.537690
20
73.415010
11
281.432240
21
73.415010
0
LINE
8
Слой 1
10
281.432240
20
73.415010
11
281.432240
21
182.630610
0
LINE
8
Слой 1
10
281.432240
20
182.630610
11
281.509240
21
182.630610
0
LINE
8
Слой 1
10
281.509240
20
182.630610
11
281.509240
21
188.571010
0
LINE
8
Слой 1
10
281.509240
20
188.571010
11
274.060930
21
188.571010
0
LINE
8
Слой 1
10
274.060930
20
188.571010
11
274.060930
21
185.708480
0
LINE
8
Слой 1
10
274.060930
20
185.708480
11
259.379850
21
185.708480
0
LINE
8
Слой 1
10
259.379850
20
185.708480
11
259.379850
21
188.571010
0
LINE
8
Слой 1
10
259.379850
20
188.571010
11
251.932080
21
188.571010
 0 
ENDSEC
 0 
EOF