<?xml version="1.0" encoding="UTF-8" standalone="no"?>
<!-- Created with Inkscape (http://www.inkscape.org/) -->

<svg
   width="210mm"
   height="297mm"
   viewBox="0 0 210 297"
   version="1.1"
   id="svg1"
   inkscape:version="1.3.2 (091e20e, 2023-11-25, custom)"
   sodipodi:docname="корпус для устройства.svg"
   xmlns:inkscape="http://www.inkscape.org/namespaces/inkscape"
   xmlns:sodipodi="http://sodipodi.sourceforge.net/DTD/sodipodi-0.dtd"
   xmlns="http://www.w3.org/2000/svg"
   xmlns:svg="http://www.w3.org/2000/svg">
  <sodipodi:namedview
     id="namedview1"
     pagecolor="#ffffff"
     bordercolor="#000000"
     borderopacity="0.25"
     inkscape:showpageshadow="2"
     inkscape:pageopacity="0.0"
     inkscape:pagecheckerboard="0"
     inkscape:deskcolor="#d1d1d1"
     inkscape:document-units="mm"
     showguides="true"
     inkscape:zoom="0.24787674"
     inkscape:cx="1000.4973"
     inkscape:cy="292.48408"
     inkscape:window-width="1920"
     inkscape:window-height="1001"
     inkscape:window-x="-9"
     inkscape:window-y="-9"
     inkscape:window-maximized="1"
     inkscape:current-layer="layer1" />
  <defs
     id="defs1" />
  <g
     inkscape:label="Слой 1"
     inkscape:groupmode="layer"
     id="layer1">
    <path
       id="rect1"
       style="fill:none;stroke:#ff1818;stroke-width:0.364171;stroke-linecap:round;stroke-opacity:0.956757"
       d="m 30.8953,84.615753 h 190.63583 c 0.554,0 1,0.446 1,1 v 94.635827 c 0,0.554 -0.446,1 -1,1 H 30.8953 c -0.554,0 -1,-0.446 -1,-1 V 85.615753 c 0,-0.554 0.446,-1 1,-1 z" />
    <path
       id="rect3"
       style="fill:none;stroke:#ff1818;stroke-width:0.194975;stroke-linecap:round;stroke-opacity:0.956757"
       d="m 71.810699,128.03116 h 12.805026 c 0.554,0 1,0.446 1,1 v 7.80502 c 0,0.554 -0.446,1 -1,1 H 71.810699 c -0.554,0 -1,-0.446 -1,-1 v -7.80502 c 0,-0.554 0.446,-1 1,-1 z" />
    <path
       id="rect3-5"
       style="fill:none;stroke:#ff1818;stroke-width:0.194975;stroke-linecap:round;stroke-opacity:0.956757"
       d="m 167.81071,128.03116 h 12.80503 c 0.554,0 1,0.446 1,1 v 7.80502 c 0,0.554 -0.446,1 -1,1 h -12.80503 c -0.554,0 -1,-0.446 -1,-1 v -7.80502 c 0,-0.554 0.446,-1 1,-1 z" />
    <path
       id="rect4"
       style="fill:none;stroke:#ff1818;stroke-width:0.389859;stroke-linecap:round;stroke-opacity:0.956757"
       d="M 285.09042,108.43591 H 554.70059 V 228.04605 H 285.09042 Z" />
    <path
       id="rect5"
       style="fill:none;stroke:#ff1818;stroke-width:0.138485;stroke-linecap:round;stroke-opacity:0.956757"
       d="m 663.89126,110.2497 v 139.86123 h 10.03711 v 2.66289 h 19.78743 v -2.66289 h 10.03711 V 110.2497 Z" />
    <path
       id="rect7"
       style="fill:none;stroke:#ff1818;stroke-width:0.177643;stroke-linecap:round;stroke-opacity:0.956757"
       d="m 312.28433,158.3298 h 2.52236 v 19.82236 h -2.52236 z" />
    <path
       id="rect7-4"
       style="fill:none;stroke:#ff1818;stroke-width:0.177643;stroke-linecap:round;stroke-opacity:0.956757"
       d="m 524.98431,158.3298 h 2.52236 v 19.82236 h -2.52236 z" />
    <path
       id="rect5-4"
       style="fill:none;stroke:#ff1818;stroke-width:0.138485;stroke-linecap:round;stroke-opacity:0.956757"
       d="m 714.95106,110.2497 v 139.86123 h 10.03711 v 2.66289 h 19.78743 v -2.66289 h 10.03711 V 110.2497 Z" />
    <path
       id="rect8"
       style="fill:none;stroke:#ff1818;stroke-width:0.159174;stroke-linecap:round;stroke-opacity:0.956757"
       transform="rotate(90)"
       d="m 119.21529,-690.24249 h 24.84082 v 12.84082 h -24.84082 z" />
    <path
       id="path9"
       style="fill:none;stroke:#ff1818;stroke-width:0.291749;stroke-linecap:round;stroke-opacity:0.956757"
       d="m 736.73602,132.1357 a 1.8541256,1.8541256 0 0 1 -1.85412,1.85412 1.8541256,1.8541256 0 0 1 -1.85413,-1.85412 1.8541256,1.8541256 0 0 1 1.85413,-1.85413 1.8541256,1.8541256 0 0 1 1.85412,1.85413 z" />
    <path
       style="fill:none;stroke:#ff1818;stroke-width:0.2;stroke-linecap:round;stroke-opacity:0.956757"
       d="m 325.74112,248.41866 -24.68359,16.1444 24.61688,0.20014 z"
       id="path10" />
    <path
       id="rect10"
       style="fill:none;stroke:#ff1818;stroke-width:0.40276;stroke-linecap:round;stroke-dasharray:none;stroke-opacity:0.956757"
       d="m 287.74264,71.115556 v 7.557161 h -2.64273 v 14.482837 h 2.64273 v 7.557166 h 264.30584 v -7.54528 h 2.65462 V 78.660832 h -2.65462 v -7.545276 z"
       sodipodi:nodetypes="ccccccccccccc" />
    <path
       id="rect11"
       style="fill:none;stroke:#ff1818;stroke-width:0.376014;stroke-linecap:round;stroke-dasharray:none;stroke-opacity:0.956757"
       d="m 251.93208,108.42899 v 5.9404 h 0.0765 v 109.2156 h -0.10493 v 4.46798 h 7.46227 v -2.89012 h 14.70899 v 2.89012 h 7.46278 v -4.46798 h -0.10545 v -109.2156 h 0.077 v -5.9404 h -7.44831 v 2.86253 h -14.68108 v -2.86253 z" />
  </g>
</svg>
